# xmcd
#
# Track frame offsets:
# 150
# 13042
# 28631
# 46164
# 63826
# 82300
# 96627
# 108563
# 123731
# 137341
# 156809
# 175621
# 186427
# 202256
# 217426
# 229306
# 241332
# 254054
# 269950
#
# Disc length: 3816 seconds
#
#
# Revision: 0
# Processed by: cddbd v1.5.1PL0 Copyright (c) Steve Scherf et al.
# Submitted via: FreeRIP 2.942 
#
DISCID=2f0ee613
DTITLE=Diversos Sertanejos - Batidão 2005
DYEAR=2005
DGENRE=Country
TTITLE0=Clube do batidão
TTITLE1=Que Pescar Que Nada
TTITLE2=Acidente de Amor
TTITLE3=Sistema Bruto
TTITLE4=Bebedeira
TTITLE5=Ajeite o Trem Aí
TTITLE6=Chega Junto
TTITLE7=Tremelê
TTITLE8=Se Tiver Mulher Nois Vai
TTITLE9=Coração Aventureiro
TTITLE10=Agora Aguenta Nóis
TTITLE11=Garanhão da Madrugada
TTITLE12=Bebo Pra Carai
TTITLE13=Deus me Livre
TTITLE14=Pelejando
TTITLE15=Oito Segundos
TTITLE16=Na Sola Da Bota
TTITLE17=Amor Ou Paixão
TTITLE18=Brega Dimais
EXTD=
EXTT0=
EXTT1=
EXTT2=
EXTT3=
EXTT4=
EXTT5=
EXTT6=
EXTT7=
EXTT8=
EXTT9=
EXTT10=
EXTT11=
EXTT12=
EXTT13=
EXTT14=
EXTT15=
EXTT16=
EXTT17=
EXTT18=
PLAYORDER=
